<?xml version="1.0" encoding="UTF-8" standalone="no"?>
<!-- Created with Inkscape (http://www.inkscape.org/) -->

<svg
   xmlns:dc="http://purl.org/dc/elements/1.1/"
   xmlns:cc="http://creativecommons.org/ns#"
   xmlns:rdf="http://www.w3.org/1999/02/22-rdf-syntax-ns#"
   xmlns:svg="http://www.w3.org/2000/svg"
   xmlns="http://www.w3.org/2000/svg"
   xmlns:sodipodi="http://sodipodi.sourceforge.net/DTD/sodipodi-0.dtd"
   xmlns:inkscape="http://www.inkscape.org/namespaces/inkscape"
   width="16"
   height="16"
   id="svg3063"
   version="1.1"
   inkscape:version="0.48.2 r9819"
   sodipodi:docname="sort-id-16.svg"
   inkscape:export-filename="D:\Dev\TrackIt\res\sort-id-16.png"
   inkscape:export-xdpi="90"
   inkscape:export-ydpi="90">
  <defs
     id="defs3065" />
  <sodipodi:namedview
     id="base"
     pagecolor="#ffffff"
     bordercolor="#666666"
     borderopacity="1.0"
     inkscape:pageopacity="0.0"
     inkscape:pageshadow="2"
     inkscape:zoom="31.0625"
     inkscape:cx="8"
     inkscape:cy="8"
     inkscape:document-units="px"
     inkscape:current-layer="layer1"
     showgrid="true"
     inkscape:snap-grids="true"
     inkscape:window-width="1280"
     inkscape:window-height="714"
     inkscape:window-x="-4"
     inkscape:window-y="-4"
     inkscape:window-maximized="1"
     showguides="true"
     inkscape:guide-bbox="true">
    <inkscape:grid
       type="xygrid"
       id="grid3071"
       empspacing="5"
       visible="true"
       enabled="true"
       snapvisiblegridlinesonly="true" />
  </sodipodi:namedview>
  <metadata
     id="metadata3068">
    <rdf:RDF>
      <cc:Work
         rdf:about="">
        <dc:format>image/svg+xml</dc:format>
        <dc:type
           rdf:resource="http://purl.org/dc/dcmitype/StillImage" />
        <dc:title />
      </cc:Work>
    </rdf:RDF>
  </metadata>
  <g
     inkscape:groupmode="layer"
     id="layer3"
     inkscape:label="Objects"
     style="display:inline">
    <path
       sodipodi:type="arc"
       style="fill:none;stroke:#2e3436;stroke-width:1.33333313;stroke-opacity:1"
       id="path4923"
       sodipodi:cx="3"
       sodipodi:cy="5"
       sodipodi:rx="2"
       sodipodi:ry="4"
       d="M 5,5 A 2,4 0 1 1 1,5 2,4 0 1 1 5,5 z"
       transform="matrix(0.75000003,0,0,0.75000001,1.7499999,-0.25000003)" />
    <path
       style="fill:#2e3436;fill-opacity:1;stroke:none"
       d="M 3.875,8 C 2.8394656,8 2,8.895431 2,10 2,11.10457 2.8394656,12 3.875,12 4.2956855,12 4.68717,11.843298 5,11.59375 4.979244,12.928655 4.5390472,14 4,14 3.679447,14 3.420927,13.592593 3.25,13 L 2.21875,13 C 2.536757,14.18138 3.202145,15 4,15 5.104569,15 6,13.432997 6,11.5 6,10.874941 5.8828038,10.289162 5.71875,9.78125 5.651188,9.1258908 5.2959658,8.5896739 4.78125,8.28125 4.719261,8.235367 4.6587463,8.19118 4.59375,8.15625 4.572464,8.14665 4.552929,8.13378 4.53125,8.125 4.45075,8.086614 4.3654527,8.051882 4.28125,8.03125 4.27126,8.0288 4.260037,8.03344 4.25,8.03125 4.168347,8.013428 4.0851431,8.006098 4,8 3.957867,7.99698 3.91785,8 3.875,8 z m 0,1 C 3.9815992,9 4.0920192,9.027539 4.1875,9.0625 4.20796,9.06999 4.230207,9.08482 4.25,9.09375 4.294042,9.123433 4.333587,9.143709 4.375,9.1875 4.5457199,9.368021 4.7058103,9.690623 4.8125,10.0625 4.780355,10.583719 4.3717767,11 3.875,11 3.3572327,11 2.9375,10.552285 2.9375,10 2.9375,9.447715 3.3572327,9 3.875,9 z"
       id="path4966"
       inkscape:connector-curvature="0" />
  </g>
  <g
     inkscape:label="Arrow"
     inkscape:groupmode="layer"
     id="layer1"
     transform="translate(0,-1036.3622)"
     style="display:inline">
    <path
       style="fill:#73d216;fill-opacity:1;stroke:#4e9a06;stroke-width:1px;stroke-linecap:butt;stroke-linejoin:round;stroke-opacity:1;display:inline"
       d="m 9.5,1036.8622 0,11 -2,0 4,4 4,-4 -2,0 0,-11 z"
       id="path4543"
       inkscape:connector-curvature="0"
       sodipodi:nodetypes="cccccccc" />
    <path
       style="fill:none;stroke:#ffffff;stroke-width:1px;stroke-linecap:butt;stroke-linejoin:miter;stroke-opacity:0.49803922;display:inline"
       d="m 10.5,1037.8622 0,11 -0.6,0 1.6,1.6 1.6,-1.6 -0.6,0 0,-11 z"
       id="path4543-2"
       inkscape:connector-curvature="0"
       sodipodi:nodetypes="cccccccc" />
  </g>
</svg>
