<?xml version="1.0" encoding="UTF-8" standalone="no"?>
<!-- Created with Inkscape (http://www.inkscape.org/) -->

<svg
   xmlns:dc="http://purl.org/dc/elements/1.1/"
   xmlns:cc="http://creativecommons.org/ns#"
   xmlns:rdf="http://www.w3.org/1999/02/22-rdf-syntax-ns#"
   xmlns:svg="http://www.w3.org/2000/svg"
   xmlns="http://www.w3.org/2000/svg"
   xmlns:xlink="http://www.w3.org/1999/xlink"
   xmlns:sodipodi="http://sodipodi.sourceforge.net/DTD/sodipodi-0.dtd"
   xmlns:inkscape="http://www.inkscape.org/namespaces/inkscape"
   width="32"
   height="32"
   id="svg2"
   version="1.1"
   inkscape:version="0.48.2 r9819"
   sodipodi:docname="zoom-generic-32.svg"
   inkscape:export-filename="D:\Dev\TrackIt\res\zoom-generic-32.png"
   inkscape:export-xdpi="90"
   inkscape:export-ydpi="90">
  <defs
     id="defs4">
    <linearGradient
       id="linearGradient4068">
      <stop
         style="stop-color:#729fcf;stop-opacity:1;"
         offset="0"
         id="stop4070" />
      <stop
         style="stop-color:#3465a4;stop-opacity:1;"
         offset="1"
         id="stop4072" />
    </linearGradient>
    <linearGradient
       id="linearGradient4049">
      <stop
         style="stop-color:#ffffff;stop-opacity:0.49803922;"
         offset="0"
         id="stop4051" />
      <stop
         style="stop-color:#ffffff;stop-opacity:1;"
         offset="1"
         id="stop4053" />
    </linearGradient>
    <linearGradient
       id="linearGradient3944">
      <stop
         style="stop-color:#e9b96f;stop-opacity:1;"
         offset="0"
         id="stop3946" />
      <stop
         style="stop-color:#c17d11;stop-opacity:1;"
         offset="1"
         id="stop3948" />
    </linearGradient>
    <linearGradient
       id="linearGradient3936">
      <stop
         style="stop-color:#c17d11;stop-opacity:1;"
         offset="0"
         id="stop3938" />
      <stop
         style="stop-color:#905902;stop-opacity:1;"
         offset="1"
         id="stop3940" />
    </linearGradient>
    <linearGradient
       id="linearGradient3863">
      <stop
         style="stop-color:#b9d0e7;stop-opacity:0.49803922;"
         offset="0"
         id="stop3865" />
      <stop
         style="stop-color:#73a0cf;stop-opacity:0.49803922;"
         offset="1"
         id="stop3867" />
    </linearGradient>
    <linearGradient
       id="linearGradient3815">
      <stop
         style="stop-color:#888a85;stop-opacity:1;"
         offset="0"
         id="stop3817" />
      <stop
         style="stop-color:#555753;stop-opacity:1;"
         offset="1"
         id="stop3819" />
    </linearGradient>
    <linearGradient
       id="linearGradient3888-8">
      <stop
         style="stop-color:#000000;stop-opacity:0;"
         offset="0"
         id="stop3890-2" />
      <stop
         id="stop3896-7"
         offset="0.5"
         style="stop-color:#000000;stop-opacity:0.12156863;" />
      <stop
         style="stop-color:#000000;stop-opacity:0;"
         offset="1"
         id="stop3892-7" />
    </linearGradient>
    <radialGradient
       r="16"
       fy="28.5"
       fx="16"
       cy="28.5"
       cx="16"
       gradientTransform="matrix(1,0,0,0.21875,0,22.265625)"
       gradientUnits="userSpaceOnUse"
       id="radialGradient3914"
       xlink:href="#linearGradient3888-8"
       inkscape:collect="always" />
    <radialGradient
       inkscape:collect="always"
       xlink:href="#linearGradient3863"
       id="radialGradient3806"
       gradientUnits="userSpaceOnUse"
       gradientTransform="matrix(0.50203843,-5.1711288e-8,5.9146916e-8,0.43892515,6.3215395,6.7106196)"
       cx="13.465538"
       cy="13.912251"
       fx="13.465538"
       fy="13.912251"
       r="5.9849888" />
    <linearGradient
       inkscape:collect="always"
       xlink:href="#linearGradient3944"
       id="linearGradient3913"
       gradientUnits="userSpaceOnUse"
       x1="-13"
       y1="19"
       x2="-3"
       y2="19" />
    <linearGradient
       inkscape:collect="always"
       xlink:href="#linearGradient3936"
       id="linearGradient3915"
       gradientUnits="userSpaceOnUse"
       x1="-14"
       y1="19"
       x2="-2"
       y2="19" />
    <linearGradient
       inkscape:collect="always"
       xlink:href="#linearGradient3815"
       id="linearGradient3937"
       x1="8"
       y1="8"
       x2="17"
       y2="17"
       gradientUnits="userSpaceOnUse" />
    <linearGradient
       inkscape:collect="always"
       xlink:href="#linearGradient4049"
       id="linearGradient3940"
       gradientUnits="userSpaceOnUse"
       x1="9.1900625"
       y1="1026.829"
       x2="11.947224"
       y2="1032.3018"
       gradientTransform="matrix(0.93335175,0,0,0.93335174,1.2999171,69.305035)" />
    <linearGradient
       inkscape:collect="always"
       xlink:href="#linearGradient4068"
       id="linearGradient3943"
       gradientUnits="userSpaceOnUse"
       x1="8.3218918"
       y1="7.6184139"
       x2="15.565209"
       y2="13.951143" />
  </defs>
  <sodipodi:namedview
     id="base"
     pagecolor="#ffffff"
     bordercolor="#666666"
     borderopacity="1.0"
     inkscape:pageopacity="0.0"
     inkscape:pageshadow="2"
     inkscape:zoom="15.53125"
     inkscape:cx="8.5955734"
     inkscape:cy="15.452716"
     inkscape:document-units="px"
     inkscape:current-layer="layer1"
     showgrid="true"
     inkscape:window-width="1280"
     inkscape:window-height="714"
     inkscape:window-x="-4"
     inkscape:window-y="-4"
     inkscape:window-maximized="1"
     inkscape:snap-grids="true">
    <inkscape:grid
       type="xygrid"
       id="grid3871"
       empspacing="5"
       visible="true"
       enabled="true"
       snapvisiblegridlinesonly="true" />
  </sodipodi:namedview>
  <metadata
     id="metadata7">
    <rdf:RDF>
      <cc:Work
         rdf:about="">
        <dc:format>image/svg+xml</dc:format>
        <dc:type
           rdf:resource="http://purl.org/dc/dcmitype/StillImage" />
        <dc:title></dc:title>
      </cc:Work>
    </rdf:RDF>
  </metadata>
  <g
     inkscape:groupmode="layer"
     id="layer3"
     inkscape:label="Shadow"
     style="display:inline">
    <path
       sodipodi:type="arc"
       style="fill:url(#radialGradient3914);fill-opacity:1;stroke:none"
       id="path3886"
       sodipodi:cx="16"
       sodipodi:cy="28.5"
       sodipodi:rx="16"
       sodipodi:ry="3.5"
       d="m 32,28.5 a 16,3.5 0 1 1 -32,0 16,3.5 0 1 1 32,0 z"
       transform="matrix(1,0,0,1.1428571,0,-5.5714275)" />
  </g>
  <g
     inkscape:label="Ebene 1"
     inkscape:groupmode="layer"
     id="layer1"
     transform="translate(0,-1020.3622)"
     style="display:inline">
    <g
       id="g3909"
       transform="matrix(0.72987415,0.72986168,-0.72987415,0.72986168,788.44259,291.61055)">
      <path
         id="path3846"
         transform="translate(0,1020.3622)"
         d="m -12,16.5 c -1.380712,0 -2.5,1.119288 -2.5,2.5 0,1.380712 1.119288,2.5 2.5,2.5 l 8,0 c 1.3807119,0 2.5,-1.119288 2.5,-2.5 0,-1.380712 -1.1192881,-2.5 -2.5,-2.5 l -8,0 z"
         style="fill:url(#linearGradient3913);fill-opacity:1;stroke:url(#linearGradient3915);stroke-width:0.96881473"
         inkscape:connector-curvature="0" />
      <path
         id="path3870"
         transform="translate(0,1020.3622)"
         d="m -12,17.5 c -0.828427,0 -1.5,0.671573 -1.5,1.5 0,0.828427 0.671573,1.5 1.5,1.5 l 8,0 c 0.8284271,0 1.5,-0.671573 1.5,-1.5 0,-0.828427 -0.6715729,-1.5 -1.5,-1.5 l -8,0 z"
         style="fill:none;stroke:#ffffff;stroke-width:0.96881473;stroke-opacity:0.24705882"
         inkscape:connector-curvature="0" />
    </g>
    <path
       style="fill:#d3d7cf;fill-opacity:1;stroke:url(#linearGradient3937);stroke-width:0.99999994000000003;stroke-opacity:1"
       d="M 12.5 2.5 C 6.9771524 2.5 2.5 6.9771524 2.5 12.5 C 2.5 18.022848 6.9771524 22.5 12.5 22.5 C 18.022848 22.5 22.5 18.022848 22.5 12.5 C 22.5 6.9771524 18.022848 2.5 12.5 2.5 z M 12.5 5.5 C 16.365993 5.5 19.5 8.6340067 19.5 12.5 C 19.5 16.365993 16.365993 19.5 12.5 19.5 C 8.6340067 19.5 5.5 16.365993 5.5 12.5 C 5.5 8.6340067 8.6340067 5.5 12.5 5.5 z "
       transform="translate(0,1020.3622)"
       id="path3812" />
    <path
       sodipodi:type="arc"
       style="fill:none;stroke:#ffffff;stroke-width:0.67020398;stroke-linecap:butt;stroke-linejoin:round;stroke-miterlimit:4;stroke-opacity:0.49803922;stroke-dasharray:none"
       id="path3823"
       sodipodi:cx="8.4024143"
       sodipodi:cy="8.4668007"
       sodipodi:rx="5.5694165"
       sodipodi:ry="5.826962"
       d="m 13.971831,8.4668007 c 0,3.2181423 -2.493513,5.8269623 -5.5694167,5.8269623 -3.0759038,0 -5.5694165,-2.60882 -5.5694165,-5.8269623 0,-3.2181423 2.4935127,-5.826962 5.5694165,-5.826962 3.0759037,0 5.5694167,2.6088197 5.5694167,5.826962 z"
       transform="matrix(1.5261922,0,0,1.4587361,-0.82369918,1020.0114)" />
    <path
       sodipodi:type="arc"
       style="fill:url(#radialGradient3806);fill-opacity:1;stroke:url(#linearGradient3943);stroke-width:0.75252646000000001;stroke-linecap:butt;stroke-linejoin:round;stroke-miterlimit:4;stroke-opacity:1;stroke-dasharray:none"
       id="path3861"
       sodipodi:cx="11.943662"
       sodipodi:cy="10.784708"
       sodipodi:rx="5.6338029"
       sodipodi:ry="4.9255533"
       d="m 17.577465,10.784708 c 0,2.720308 -2.52234,4.925553 -5.633803,4.925553 -3.1114637,0 -5.6338032,-2.205245 -5.6338032,-4.925553 0,-2.720308 2.5223395,-4.9255533 5.6338032,-4.9255533 3.111463,0 5.633803,2.2052453 5.633803,4.9255533 z"
       transform="matrix(1.2425245,0,0,1.4211882,-2.3401542,1017.535)" />
    <path
       style="fill:url(#linearGradient3940);fill-opacity:1;stroke:none"
       d="m 9.9122936,1027.6825 c 1.9017984,-0.9743 5.2996694,-0.7744 6.4414414,0.9335 1.141773,1.7078 -1.108519,2.8729 -3.853597,4.2462 -2.7450777,1.3732 -4.9684286,2.5102 -5.6602056,0.3923 -0.6917769,-2.118 1.1705631,-4.5976 3.0723612,-5.572 z"
       id="path3952"
       inkscape:connector-curvature="0"
       sodipodi:nodetypes="zzzzz" />
  </g>
</svg>
